<mxfile host="app.diagrams.net" agent="Mozilla/5.0 (X11; Linux x86_64) AppleWebKit/537.36 (KHTML, like Gecko) Chrome/132.0.0.0 Safari/537.36" version="26.0.10">
  <diagram name="Page-1" id="6ASpQugSgCsumJm9L3rk">
    <mxGraphModel dx="844" dy="-583" grid="1" gridSize="10" guides="1" tooltips="1" connect="1" arrows="1" fold="1" page="1" pageScale="1" pageWidth="850" pageHeight="1100" math="0" shadow="0">
      <root>
        <mxCell id="0" />
        <mxCell id="1" parent="0" />
        <mxCell id="ElEIyegi27BPOm4t3Ntf-25" value="main.cpp" style="whiteSpace=wrap;html=1;aspect=fixed;rounded=1;" vertex="1" parent="1">
          <mxGeometry x="360" y="2080" width="80" height="80" as="geometry" />
        </mxCell>
        <mxCell id="ElEIyegi27BPOm4t3Ntf-41" value="" style="rounded=1;whiteSpace=wrap;html=1;container=1;" vertex="1" parent="1">
          <mxGeometry y="1750" width="850" height="100" as="geometry" />
        </mxCell>
        <mxCell id="ElEIyegi27BPOm4t3Ntf-42" value="&lt;b&gt;project.h&lt;span style=&quot;color: rgba(0, 0, 0, 0); font-family: monospace; font-size: 0px; text-align: start; text-wrap-mode: nowrap;&quot;&gt;%3CmxGraphModel%3E%3Croot%3E%3CmxCell%20id%3D%220%22%2F%3E%3CmxCell%20id%3D%221%22%20parent%3D%220%22%2F%3E%3CmxCell%20id%3D%222%22%20value%3D%22%22%20style%3D%22rounded%3D1%3BwhiteSpace%3Dwrap%3Bhtml%3D1%3Bcontainer%3D1%3B%22%20vertex%3D%221%22%20parent%3D%221%22%3E%3CmxGeometry%20y%3D%221910%22%20width%3D%22850%22%20height%3D%22100%22%20as%3D%22geometry%22%2F%3E%3C%2FmxCell%3E%3CmxCell%20id%3D%223%22%20value%3D%22editor.h%22%20style%3D%22whiteSpace%3Dwrap%3Bhtml%3D1%3Baspect%3Dfixed%3Brounded%3D1%3B%22%20vertex%3D%221%22%20parent%3D%222%22%3E%3CmxGeometry%20x%3D%22190%22%20y%3D%2210%22%20width%3D%2280%22%20height%3D%2280%22%20as%3D%22geometry%22%2F%3E%3C%2FmxCell%3E%3C%2Froot%3E%3C%2FmxGraphModel%3E&lt;/span&gt;&lt;/b&gt;" style="whiteSpace=wrap;html=1;aspect=fixed;rounded=1;" vertex="1" parent="ElEIyegi27BPOm4t3Ntf-41">
          <mxGeometry x="10" y="10" width="80" height="80" as="geometry" />
        </mxCell>
        <mxCell id="ElEIyegi27BPOm4t3Ntf-45" value="&lt;b&gt;translator.h&lt;/b&gt;&lt;div&gt;&lt;font style=&quot;font-size: 9px;&quot;&gt;(translates .rh to c)&lt;/font&gt;&lt;/div&gt;" style="whiteSpace=wrap;html=1;aspect=fixed;rounded=1;" vertex="1" parent="ElEIyegi27BPOm4t3Ntf-41">
          <mxGeometry x="100" y="10" width="80" height="80" as="geometry" />
        </mxCell>
        <mxCell id="ElEIyegi27BPOm4t3Ntf-46" value="&lt;b&gt;config.h&lt;/b&gt;&lt;div&gt;&lt;font style=&quot;font-size: 9px;&quot;&gt;(typedef for all configurations)&lt;/font&gt;&lt;/div&gt;" style="whiteSpace=wrap;html=1;aspect=fixed;rounded=1;" vertex="1" parent="ElEIyegi27BPOm4t3Ntf-41">
          <mxGeometry x="190" y="10" width="80" height="80" as="geometry" />
        </mxCell>
        <mxCell id="ElEIyegi27BPOm4t3Ntf-43" value="" style="group" vertex="1" connectable="0" parent="1">
          <mxGeometry y="1910" width="850" height="100" as="geometry" />
        </mxCell>
        <mxCell id="ElEIyegi27BPOm4t3Ntf-29" value="" style="rounded=1;whiteSpace=wrap;html=1;container=1;" vertex="1" parent="ElEIyegi27BPOm4t3Ntf-43">
          <mxGeometry width="850" height="100" as="geometry" />
        </mxCell>
        <mxCell id="ElEIyegi27BPOm4t3Ntf-31" value="editor.h" style="whiteSpace=wrap;html=1;aspect=fixed;rounded=1;" vertex="1" parent="ElEIyegi27BPOm4t3Ntf-29">
          <mxGeometry x="190" y="10" width="80" height="80" as="geometry" />
        </mxCell>
        <mxCell id="ElEIyegi27BPOm4t3Ntf-27" value="compiler.h" style="whiteSpace=wrap;html=1;aspect=fixed;rounded=1;" vertex="1" parent="ElEIyegi27BPOm4t3Ntf-43">
          <mxGeometry x="10" y="10" width="80" height="80" as="geometry" />
        </mxCell>
        <mxCell id="ElEIyegi27BPOm4t3Ntf-28" value="renderer.h" style="whiteSpace=wrap;html=1;aspect=fixed;rounded=1;" vertex="1" parent="ElEIyegi27BPOm4t3Ntf-43">
          <mxGeometry x="100" y="10" width="80" height="80" as="geometry" />
        </mxCell>
        <mxCell id="ElEIyegi27BPOm4t3Ntf-37" style="edgeStyle=orthogonalEdgeStyle;rounded=0;orthogonalLoop=1;jettySize=auto;html=1;entryX=0.5;entryY=0;entryDx=0;entryDy=0;" edge="1" parent="1" source="ElEIyegi27BPOm4t3Ntf-27" target="ElEIyegi27BPOm4t3Ntf-25">
          <mxGeometry relative="1" as="geometry">
            <Array as="points">
              <mxPoint x="50" y="2040" />
              <mxPoint x="400" y="2040" />
            </Array>
          </mxGeometry>
        </mxCell>
        <mxCell id="ElEIyegi27BPOm4t3Ntf-38" style="edgeStyle=orthogonalEdgeStyle;rounded=0;orthogonalLoop=1;jettySize=auto;html=1;entryX=0.5;entryY=0;entryDx=0;entryDy=0;" edge="1" parent="1" source="ElEIyegi27BPOm4t3Ntf-28" target="ElEIyegi27BPOm4t3Ntf-25">
          <mxGeometry relative="1" as="geometry">
            <Array as="points">
              <mxPoint x="140" y="2040" />
              <mxPoint x="400" y="2040" />
            </Array>
          </mxGeometry>
        </mxCell>
        <mxCell id="ElEIyegi27BPOm4t3Ntf-39" style="edgeStyle=orthogonalEdgeStyle;rounded=0;orthogonalLoop=1;jettySize=auto;html=1;" edge="1" parent="1" source="ElEIyegi27BPOm4t3Ntf-31" target="ElEIyegi27BPOm4t3Ntf-25">
          <mxGeometry relative="1" as="geometry">
            <Array as="points">
              <mxPoint x="230" y="2040" />
              <mxPoint x="400" y="2040" />
            </Array>
          </mxGeometry>
        </mxCell>
      </root>
    </mxGraphModel>
  </diagram>
</mxfile>
